<?xml version="1.0" encoding="utf-8"?>
<!-- Generator: Adobe Illustrator 25.2.3, SVG Export Plug-In . SVG Version: 6.00 Build 0)  -->
<svg version="1.1" id="Layer_1" xmlns:amcharts="http://amcharts.com/ammap"
	 xmlns="http://www.w3.org/2000/svg" xmlns:xlink="http://www.w3.org/1999/xlink" x="0px" y="0px" viewBox="0 0 900 1200"
	 >
<defs>
<style type="text/css">
	.land
			{
				fill: #2c2c3d;
				fill-opacity: 1;
				stroke:white;
				stroke-opacity: 1;
				stroke-width:0.5;
			}
	.selectedsvg {
		stroke: white;		
		stroke-width:2; 
	}

	.elsesvg {
		opacity: 0.4; 
	}

</style>

	
		<amcharts:ammap  bottomLatitude="33.194810" leftLongitude="125.385069" projection="mercator" rightLongitude="131.873029" topLatitude="38.611881">
		</amcharts:ammap>
</defs>
<g>
	<path id="KR-11" title="Seoul" class="land Seoul" d="M58.2,135.8L58.2,135.8l3.8,3.8l0.8,5.4l1.1,0.4l2.4-1.2l3.1,5.8l1.8-0.7l3.6,0.4l4.2-2.3l3.1-0.3
		l0.7,2.9l3.6-2.1l3-0.3l1.7-1.6v-1.2l1.3-0.3l1.3-1.7l-1.2-1.1l0.4-2.5l3.2-2.1l-1.4-3.6l-4.8,2.2l-1.5-0.4l1.4-5.3l-2.1-4.7
		l-0.1-4.5l-2.1-1.3l-5-0.2l-2.2,1.5l-1.6,2.8l-0.1,3l-1.1,0.8l-5.1,0.4l-1.6,4.5l-3.6,1.6l-5.1-3.2l-2.2,3.5l0,0L58.2,135.8z"/>
	<path id="KR-26" title="Busan" class="land Busan" d="M286.1,389.8v0.8h4l1.3,1.3l0,0l1,1.7l-0.2,1.5l-1.5,1.1l-0.8,5l-1.9,1l1.6,0.2l0.3,1.6l-1.4,3
		l-1-0.5l-0.6,1.4l0.8,1.4l-0.6,1.7l-2.3,0.7l-0.6,2.2l-1.1,0.7l-1.6-0.6l-1.3,0.9l-1.6-1.1l0.1,0.8l-1.6,0.2l-0.6,2.1l1,0.2
		l0.5,1.5l-0.1,2.6l-1.2-0.6l-1.9,0.3l-0.3-0.4l-1.9-0.3l0.2-2l-0.7-0.4l-1.8,1.3l-1.7,2.7l-0.2,1.8l-0.8,0.1l0.7,1.4l-0.7,1.1
		l-1.1-3.6l-1.1,0.2l0.9,3.9l-0.9,0.4l-0.2-1.5l-1-0.4l0.2,1.7l-1.2-0.1l0.7,0.9l-1.2,0.8l0.1-1.8l-0.7-0.4l-0.8-3.3l0.6-3l-2.1,2.4
		l-0.1-2.9l-2,3.6h-1.6l1-4.5l-1-0.4l-1,4.9l-4.4-0.5l-1.5-1.6l-2.9,2.2l-0.8-0.9l1.8-1.5L246,421l0.3-2.3l0,0l6.9-2.6l0.4-5
		l2.3-0.3l3.9-2.4l4.1-0.1l4.1-4.9l3.9-2.5l1.8,0.3l3.6-6.6l4.9-0.6l0.6-1.9l2.9-2.7l0,0L286.1,389.8z M271.6,420.6l1.9,1.6
		l-0.3,1.6l1.9,1.6l-0.5,1.1h-0.9l-0.5-1.2l-0.6,0.3l-0.6-1.3l-3.1-2.3L271.6,420.6z"/>
	<path id="KR-27" title="Daegu" class="land Daegu" d="M222.1,358.5l-1.3,4.3l-1.3,0.9l0,0l-2.4-0.9l-1.5,0.4l0,0l-3.5,2.5l-2.4,0.1l0,0l-0.7-3.4l-4-5
		l0.3-2.8l3.4,1.9h2.2l0.6-2.5l-3.1-3.4l1.2-3.1l1.2-2.8l5.3-0.9l-0.3-1.9l-2.8-2.2l-4.7-0.3l1.6-5.9l2.2-3.1l4-1.9l0.6,5.6h2.5
		l3.4-8.1l5.9-1.2l2.8-3.1l3.4-0.9l3.1,0.3l3.7,3.1l0.6,7.5l1.9,4l-0.9,2.2l-3.4,1.2l-1.6,3.4v3.1l-2.5,0.3v1.9l1.2,1.6v4l-3.4,1.2
		l-1.6,1.9l-2.8-0.3l-0.6-2.8h-3.1l-2.2,1.2l-1.6,2.5L222.1,358.5z"/>
	<path id="KR-28" title="Incheon" class="land Incheon" d="M38.2,132.2l4.1-2.7l2.1-2.8l2.1,0.2l7.4,6l0,0l3.8,1.3l0.4,1.6l0,0l0,0l0,0l-3.5,4.5l0,0l0.1,4
		l3.3,2.9l0,0l-0.4,3.8l-1.8,2.3l0,0l-2-0.6l0.5-1.8l-0.7-0.5l-0.4,1.7l-0.6-2.3l0.4,3l-2,2.3l-3.6-0.5l-3.7,4.6l-4.6,0.1l-0.3,1.1
		h-1l0.8-0.3l0.5-1.8l4.6,0.8l3.6-4.5l-4-3.2l-0.9-4.3l-0.5,2.3l-1.5-0.1l0.2-2.6l-0.8,1.3l-1.2-0.5l1.2-4.6l3-1.2l1.2,0.4l-0.9-1.7
		l-2.4,1.1l0.1-1.3l-1-1.1l1,0.1l-0.2-1.2l-1.2-1.3l0.7-0.3l0.1-1.4l-2.8,1.6l-1-0.2l-0.1-0.1l3.9-1.6L38.2,132.2z M12.2,133.8
		l1.8,1.3l0.9-0.3l1.4,2l3-0.4l-0.3,1.4l-2-0.4l-1.9,0.6l-0.4-0.6l-1,1l0.4-2.1L12.2,133.8z M31.8,137l0.7,1.2l3.6,1l1.4,1.3
		l0.4,1.8l-2.3,1.4l-2-0.7l-8.9,7.4L22,151l0.3-2l-0.9-0.7l-1.2,0.8l0.9-0.9l-0.5-0.7l-1.6,1.2l-1.6-0.8l0.9-0.6l-1.5-1.8l0.2-1.4
		h1.7l3.9-2.8l5.6-0.3l1.3-1l0.7-2.7L31.8,137z M22,151.6l2.8,2.9l-0.8,2.1l-1.6,0.4l-0.9-0.9l0.1-1.9l-1.2-0.3l0.9-2.4L22,151.6z"
		/>
	<path id="KR-29" title="Gwangju" class="land Gwangju" d="M73.8,404.9L72,404l-2.4-0.1l-4.4,2l-2,2.1l-1.5,0.1L58,406l-0.6-2.2l-2.2-0.1l-2.1,5.3l-2.3-0.1
		l-1.7,2.1l-1.1,4.8l0.4,4.1l7.2,1l3.7,6.1H63l3.4-2h3.8l1.5-1l3.1,0.6l3.4-2.3l1.4-1.8l1.7-6.1V413l-2.1-1l-2.6-0.3l-1-4.5
		L73.8,404.9z"/>
	<path id="KR-30" title="Daejeon" class="land Daejeon" d="M115.8,263.2l1.2,5.3l0.3,0.2l0,0l1.5-2.4l0,0l0.6-0.6l0,0l1.4,0.2l-0.3,1.3l0,0l-0.1,0.6l0,0
		l2.9-2.4l0,0l2.5,2.5l0,0l0.2,2.6l2.4,1.2l-0.3,1.6l2,2.4l-2.8,1.9l0,0l-0.9,5.6l0,0l-1.2,6.2l1.2,3.7l0,0l-3.3,2.2l-2.2,2.8
		l-3.7-2.2l-2.2-3.7l-0.6-3.4h-1.6l-0.3,8.1l-0.9,2.2h-1.2l-0.9-3.1l-2.5-0.9l-1.6-2.2l-0.3-3.4l-2.2-1.9l-0.3-4l2.2-2.5l-0.3-8.7
		l6.9-2.2l1-6.1l0,0L115.8,263.2z"/>
	<path id="KR-31" title="Ulsan" class="land Ulsan" d="M285.3,354l1.8,1.5l3,0.9l0.2,0.8l0,0l-0.4,2.8l0,0l1,1.1l0,0l2,0.6l0,0l5.4-2.4l0,0l8.1,2.1l0,0
		l2.9,0.4l0.7,1.4v1.4l-1.1,0.8l0.5,3.1l-0.7,2.4l-1.1,0.5l0.8,0.1l-0.2,1.6l-1.2,0.5l1,0.7l-1.3,0.6l1.5,0.7l-1,1.2l-1-0.4
		l-1.8,1.3l0.2-2.5l-1.2-0.9l-0.6-2.9l-1.9-2.1l-1.5-0.5l2.3,2.3l-0.1,1.1l1,0.3l0.3,1.4l-2.4,0.1l0.5,0.7l1-0.3l0.9,1.6l-2.6,3.2
		l-2.2-1.7l0.8,3l1.2-0.1l-0.5,1l1.4-0.7v1.6l-1.6,1.2l1.1,1.7l-1.8,2.9l1.8,2.5l-1.5,0.9l-1.2-0.5l-2,3.1l-1.1,0.1l-0.3,1.2l-2-0.7
		l0.2-1.5l-1-1.7l0,0l-1.3-1.3h-4v-0.8l0,0l-1.5-1.9l0,0l-3.1-0.2l0,0l-5.6-5.9l0,0l-3.3-3.3l-2.4-0.2l0,0h-2.7l-2.2-1l-0.3-4.8
		l2.2-1.9l0,0l1.2-1V368l-1.5-2.4l0,0l3.9-3.1l0,0l0,0l0,0l1.7-0.2l0,0l0,0l0,0l1.3-0.7l-1.4-2.5l0.4-1.6l7.3-3.6L285.3,354z"/>
	<path id="KR-41" title="Gyeonggi" class="land Gyeonggi" d="M4,110.8l-1.8-2.1l1.5-1.7l0.2-2.3l1.6-1.5h2.6l3,1.8l2.4-0.7l1.1,1.2l-1.7,2.8l-2,1.2l-2.6-0.3
		l-2.2,0.6l-1,1.4L4,110.8z M13.7,169.7l-3.4-1.8l-1.1,1.2l4,2.1l2.1-0.5l0.7-1.2l-1.4-0.5L13.7,169.7z M7.1,122.8L4,122.7l3.7,3.9
		L8,126l-1.1-0.8L7.1,122.8z M-4.8,170.3l-0.9,0.6l-0.8-2.9l-1.1-0.2l-1.5,6l1.3-0.2l0.2-0.8l0.4,1.3l1.2-0.4l-0.2,1.4l3.4-0.5
		l1.6-1.9l-3.3-2L-4.8,170.3z M-0.1,120.2l-1-0.4l-1.2,0.9l1.2,0.7l1.2-0.5l0.9,1.5l1.9,0.3l0.3-1.5l-1.4-2.5L-0.1,120.2z
		 M78.9,53.3L74,59.1h-2.8l-4.7-1.9L64,58.8l-5.6,4.7l-3.4,5l1.9,0.9l1.9,3.7l6.3,0.3l3.4,1.9l0.6,3.1l-1.2,0.9l-0.3,1.9l-5-0.6
		l-0.3,3.7l-1.6,0.9l0.3,2.5l1.9,0.9l-0.3,6.5l-2.2,1.2l-3.1-3.7l1.2-4.4l-2-2.5l-2.4,0.1l-0.3,2.7l-1.9,1.9l-3.5-3.3l-0.7,0.1
		l0.9,4.9L48.1,94l4.7,1.8l3.4,5l-6.5,1.9h-2.8l-1,4.5l-3,0.2l-3.1,2.5l-3.6-0.5l-2-1.6l-0.6,1.2l-1.8,0.8l1.1,1.8l-0.9,4.2l1.1,1.8
		l-0.5,3.1l1.2,0.5l-0.8,1.7l2.6,6.3l2.4,3.1l0,0l4.1-2.7l2.1-2.8l2.1,0.2l7.4,6l0,0l3.8,1.3l0,0l2.2-3.5l5.1,3.2l3.6-1.6l1.6-4.5
		l5.1-0.4l1.1-0.8l0.1-3l1.6-2.8l2.2-1.5l5,0.2l2.1,1.3l0.1,4.5l2.1,4.7l-1.4,5.3l1.5,0.4l4.8-2.2l1.4,3.6l-3.2,2.1l-0.4,2.5
		l1.2,1.1l-1.3,1.7l-1.3,0.3v1.1l-1.7,1.6l-3,0.3l-3.6,2.1l-0.4-3l-3.1,0.3l-4.2,2.3l-3.6-0.4l-1.8,0.7l-3.1-5.8l-2.4,1.2l-1.1-0.4
		l-0.8-5.4l-3.8-3.8l0,0l-3.5,4.5l0,0l0.1,4l3.3,2.9l0,0l-0.4,3.8l-1.8,2.3l0,0l1.2,0.6l-4-0.8l-0.9,1.1l0.8,0.6l-0.4,1.5l-4.7,2.6
		l0.3,1.5l-7.5,2.6l-2.9,2.2l-0.9-0.3l0.5,1l-1.3,1.4l-2.9-1.4l2.9,4l-0.3,2.1l-1.8,1.1l1.4,1.5h-1.2l0.3,0.9l-1.1,1.1l1.7-0.7
		l1,1.6l1.8-3.4l3,1.5l0.8-3.3l0.3,1.6l2,1.2l-0.5,1.7l0.6,0.6l0.8-2.3l-0.3-1.6l-2.6-1.3l-0.6-2.7l-2.2-0.4l-2.1-2l1-1.8l3.2-2.2
		l6.5-2.2l9.4,4.5l3.1-0.4l2.8,3.3l1.3-0.4l-1,1.8l-1.6-2l-1.9-0.5l0.2-0.9l-0.9,0.3l-0.3,0.8l0.9,1.3l-1.9-0.1l0.7,1.7l-0.9,0.9
		l0.7,0.2l-2.2,3.3l-1.3-0.9l0.6-0.7l-0.6-3l-2.6,0.9l-0.3-1.1l-3.6-0.8l-0.7,1.8l-1.7,0.4l0.4,1.7l0.9,0.6l-0.9,1.7l1,1.5h-1.4
		l-1.2,1.5l1.2,2.6l-1.1,1l1.5-0.6l2.4,0.5l-2.2,2.1l1.3,0.8l-0.2,1.8l0.8,0.8l0.4-1.6l3.4-1.9l2.1-3.4l2.5,0.2l1.4-2.1l0.9,2.4
		l-2.1,1.3l4.7,0.1l-2.1,0.6l0.9,1l-0.8-0.4l-1.4,1.3l-1-0.7l-2,1.9l0.1,7.1l-1.6,2.7l0.4,0.8l4.3,0.3l0.3,2.1l-1.3,0.4l0.1,0.8
		l3.9,0.8l1.6,4.1l1.9,0.8l0.4,1.9l1.9-0.3l1.4,0.9l0.9,4.5l0,0l3.5-2.1l7.5,1.8l4.9-1.8l3-2.1l2.6-0.1l3,1.4l3.3,3.4l5.1,0.7l0,0
		l2.8-0.2l0,0l3.8-1.7l0,0l1.7-1.2l2.2,0.1l1.8-1.7l0.2-2.1l0,0l-0.3-1.1l5.1-3l0,0l0.8-2.6l2.3-2.6l0.8,1.2h1.5l-0.3,2.1l1.6-3.2
		l4.3,0.8l4-3.7l2.5-0.3l0.6-7.8h1.6l1.6,1.9h1.9l2.7-6.6l2.6-0.6l0,0l0.6-7.4l-0.6-3.4l1.6-1.2l-0.3-7.5l3.4-8.1l0.3-4l-1.9-0.7
		l-0.8-2.4l3.1-4l2.1-0.7l0.8-2.2l-1.6-2.9l-9-1.4l-4.3-3.7l-2.7-0.3l-4.1-2.5l-3.6,1.4l-2.6-2.8l1.7-3.5l0.3-4.4l-3.6,0.9l0.1-2
		l2.7-3.1l-1.3-3.5l0.8-2l-0.8-2.9l0.6-1.5l2.3-0.8l1.8-2.1l3.3-1.1l1-4l-0.8-4l-1.4-1.6l-4.2-1.4l-0.1-2.7l-0.9-0.6l-3.2,0.3
		l-3.1-1.5l-1.6-3L121,76l-1.4-2l-2,1l-2.1-1.5l-1.5,0.2l-4.1,1.9l-4.5-3.6l0.5-5.3l1.1-0.9l-2-0.9l-3.7,3.7l-2.4,0.2L97.3,68
		l-0.4-3.2l-1,0.3L95.7,64l0.6-1.9l-1.6-1.2l-0.9-5.3h-4.7v-1.9l1.2-0.9l-4.7-4.4l0,0L84.3,49L78.9,53.3z M17.7,118l-2.5-0.4
		l-2.1-1.6v-2.3l1-2.1l-0.9-0.6l-3.2,1.3l-0.1,3.4l-1.5,0.6l4.6,3.2l1,1.5l-0.3,2.1l1.1,1.1l3.6-2.7l0.4-2L17.7,118z M33.3,121.6
		l-1.5-1.4l0.8-3.2l-1.2-1.7l1.2-3.7l-1.4-1.7l-0.3-2.3l-4.5-2.9l-2.1-2.8l-3.9,0.7l-0.8,2l-3.5,1.9l0.5,10.1l3,0.8l2,4.6l-0.9,2.4
		l-3.2,0.6l1.2,2.1l-0.6,0.8l3.3,1.9l5.3,0.4v-1l0.9,0.4l0.6-0.9l3.1,0.9l0.8-1.6l1.4-0.4l-1.2-4.7L33.3,121.6z M27.7,166l-1.9,0.4
		l-0.2,1.3l-1.5-0.1l-0.7,1.5l0.8,2l-0.3,1.9h1.9l0.1,0.9l0.6-0.1l1.3-1.1l-0.3-0.9l1.5-0.1l-1.2-1.3h1.3l-0.2-0.8l1,0.7l0.7-2
		l-1.3-1.7L27.7,166z"/>
	<path id="KR-42" title="Gangwon" class="land Gangwon" d="M205.6,8.4l1.4,2.8l2.1,2.7l0.6-0.2l0.8,1.7l-0.5,1.3l1.8,2.3l-0.6,1.3l1.2,1l-0.2,1.5l3.7,4.9
		l-1.1,0.5l-0.1,1.7l5.5,7.6l-0.6,0.4l0.3,1.7l1.6,2.2v1.5l2.3,2l0.8,5.6l4,5.2l-0.8,1.1l2,2.7l-0.9,1l0.9,4l5.6,6.6l0.7,3l4,4.3
		l1.1,0.1l-0.5,1.9l3.7,6.2l1.7,1.2l-0.1,1.1l4.1,3.7l-0.1,2.5l4.4,5l0.2,1.5l16.9,18.4l-1.2,4.6l2.4,3.2l4.5,3.7l0.4,1.8l-0.9,1.9
		l1.9,5.2l5.2,5.3l1.1,5l4.8,3.7l1.7,6.9l1.8,1.6l1-0.1l0.5,2.5l1.7,0.1l0.8,1.1l-0.3,1.8l2.8,3.4l-1.5,1.1l0.7,1.8l-0.8,2.4
		l0.6,2.6l2.7,3.9l-0.3,1.2l0.8,0.8l0,0l-4.3,0.7l0,0l-1.9,2.2l-2.5,0.9l-2.8,2.5l0,0l-1.6,2.2v1.2l0,0l1.6,2.8l-6.5,0.2l0,0
		l-2.7-2.3l-2.9-1l-2.6-0.4l-2.5,2.5l-7.4-2.6l-3.3,0.7l-0.7-1.3l-1.7-0.7l0,0l-2.9,4.3l0,0l-0.9,1.2h-4l-6.2-4.4l-2,0.2l-0.5,4.7
		l-1.1,1.1l-3.1-1.4l-1.9,0.3l-4.2-2.3l0,0l-2.4-2.1l-3.5,0.2l-3.9-1.3l0,0l-3.6-2.9l-2-0.1l0,0l-4.2,1l0,0l-1.9,0.5l-0.8-1.4l0,0
		l-1.8-1.6l0.1-2.6l0,0l-1-0.8l-1.5,0.3l0,0l-3.3-0.1l-1.2,1.3l0,0l-2,0.7l0,0l-0.7,0.5l-2.3-1.8l-0.7-1.7l3.3-2l2.3-2.7l0.1-1.4
		l0,0l-1.6-0.5l-1.4,0.8l0,0l-1,0.3l0,0l-1.7-0.2l-1.5-1.7l-2.1-0.4l-2-1.5l-2.5,0.6l-1.8,2.4l-3.6-0.9l-3.7,3.1l0,0l-5.1,0.9l0,0
		l-0.3-3.8l0,0l-1.8-3.3l-4.3-0.4l-1.5,0.9l0,0l-2.8,2.7l1,4.7l-0.4,1.8l-3.1,2.1l-2.3-1.2l-3,0.1l-1.4,1.9l-2.2,0.9l-4-3.1
		l-0.6-3.5l0,0l0.6-7.4l-0.6-3.4l1.6-1.2l-0.3-7.5l3.4-8.1l0.3-4l-1.9-0.7l-0.8-2.4l3.1-4l2.1-0.7l0.8-2.2l-1.6-2.9l-9-1.4l-4.3-3.7
		l-2.7-0.3l-4.1-2.5l-3.6,1.4l-2.6-2.8l1.7-3.5l0.3-4.4l-3.6,0.9l0.1-2l2.7-3.1l-1.3-3.5l0.8-2l-0.8-2.9l0.6-1.5l2.3-0.7l1.8-2.1
		l3.3-1.1l1-4l-0.8-4l-1.4-1.6l-4.2-1.4l-0.1-2.7l-0.9-0.6l-3.2,0.3l-3.1-1.5l-1.6-3L121,76l-1.4-2l-2,1l-2.1-1.5l-1.5,0.2l-4.1,1.9
		l-4.5-3.6l0.5-5.3l1.1-0.9l-2-0.9l-3.7,3.7l-2.4,0.2L97.3,68l-0.4-3.2l-1,0.3L95.7,64l0.6-1.9l-1.6-1.2l-0.9-5.3h-4.7v-1.9l1.2-0.9
		l-4.7-4.4l0,0l4-3.2l3.4,0.4l6.7-3.1l3.4,0.5l1.6,1.2l3.2-0.1l1.1-0.9l6-1.1l9.2,4l8.2-4.2l2.6,1.4l3.8-0.4l2.7,0.7l2-1.3l5.8,0.3
		l2.5-1.4l3.7,4.6l3.9-1.1l2.1-2.2l6.3,1.8l1.8-0.4l6.4,1.4l3-0.5l3-2.4l3.3-0.3l6.8-5.4l1.3-2.1l5.5-4.8l2.2-4.6l0.8-4.6l-0.5-9.1
		L205.6,8.4z"/>
	<path id="KR-43" title="North Chungcheong" class="land North_Chungcheong" d="M138.5,314.6l-2.2-6.2l-2.2-1.9l-0.3-2.8l0,0l1.2-2.8l-0.3-3.1l-1.9-3.1l0,0L130,295l-3.8-1.8
		l-1.2-3.7l1.2-6.2l0,0l0.9-5.6l0,0l2.8-1.9l-2-2.4l0.3-1.6l-2.4-1.2l-0.2-2.6l0,0l-2.5-2.5l0,0l-2.9,2.4l0,0l0.1-0.6l0,0l0.3-1.3
		l-1.4-0.2l0,0l-0.6,0.6l0,0l-1.5,2.4l0,0l-0.3-0.2l0,0l0,0l0,0l-1.2-5.3l0,0L112,264l-0.6-0.9l-1.1,0.2l0,0l-0.6,0.8l0,0l1.9-6.1
		l-1.1-1.1l0.9-3.3l-3.3-0.2l-0.5-1.3l0,0v-2.8l-2.8-3.4l2.2-0.6l0.3-2.8l0,0l-1.6-2.2l5-7.8l3.7,0.3l1.6-1.9l-1.2-3.7l-3.1-2.2
		h-2.9l0,0l-1.1-0.5l0.2-2l0,0l-0.6-0.5l0,0l-1.5-0.7l0,0l-0.2-2.7l-2.8-1.9l-0.9-2.4l2.8-0.2l0,0l3.8-1.7l0,0l1.7-1.2l2.2,0.1
		l1.8-1.7l0.2-2.1l0,0l-0.3-1.1l5.1-3l0,0l0.8-2.6l2.3-2.6l0.8,1.2h1.5l-0.3,2.1l1.6-3.2l4.3,0.8l4-3.7l2.5-0.3l0.6-7.8h1.6l1.6,1.9
		h1.9l2.7-6.6l2.6-0.6l0.6,3.5l4,3.1l2.2-0.9l1.4-1.9l3-0.1l2.3,1.2l3.1-2.1l0.4-1.8l-1-4.7l2.8-2.7l0,0l1.5-0.9l4.3,0.4l1.8,3.3
		l0,0l0.3,3.8l0,0l5.1-0.9l0,0l3.7-3.1l3.6,0.9l1.8-2.4l2.5-0.6l2,1.5l2.1,0.4l1.5,1.7l1.7,0.2l0,0l1-0.3l0,0l1.4-0.8l1.6,0.5l0,0
		l-0.1,1.4l-2.3,2.7l-3.3,2l0.7,1.7l2.3,1.8l0.7-0.5l0,0l2-0.7l0,0l1.2-1.3l3.3,0.1l0,0l1.5-0.3l1,0.8l0,0l-0.1,2.6l1.8,1.6l0,0
		l0.8,1.4l1.9-0.5l0,0l4.2-1l0,0l2,0.1l3.6,2.9l0,0l3.9,1.3l3.5-0.2l2.4,2.1l0,0l-2.2,2.2l-2.1-0.2l0,0l-2.3,2.6l0,0l-0.6,0.3l0,0
		l-3.3,3.2l-2.8,0.8l0,0l-0.8,1.2l0,0l-3.5,2.7l-3.2,5.7l0,0l-0.8,1.6l0,0l-0.1,1.3l1.3,0.6l0,0l0.8,2.9l-2.8,3.9l-4,0.8l0,0l-0.9,1
		l-2.4-0.1l0,0l-2.2,0.2l0,0l-2.5-4.9l-3.2-1.8l-1.2-2l0,0l-1.7,3l-1.1,0.3L191,226l0,0l-0.4,0.6l-5.7-1.7l0,0l-0.4-0.6l0,0
		l-1.1-0.4l-0.6,0.6l0,0l-2.5,3.1l-1.4,0.2l0,0l-1.6-1.7l-0.5,0.3l0,0l-2.9,6.7l0,0l3.4,5.2l-4.6-0.9l0,0l-1.2-0.7l-1.2,0.6
		l-3.3-1.6l0,0l-2.9,3.7l0,0l-4.2,1.4l-1.7,2.4l0.5,2.2l-3.2,3.3l0,0l-1.8,1.5l0,0l-1.6,0.4l0,0l-1,1.9l0.7,1.1l5.4,1.1l1.2,1.2
		l-0.1,0.9l0,0l1,2l0,0l2,1.4l-0.4,1.7l0,0l-2,0.9l-0.8,7.6l0,0l0.6,2.5l-1.3,2l1.3,3.2l0,0l0.5,0.3l0,0l-1,2.6l-2.7,2.3l0,0
		l-0.1,4.3l2.1,1.8l0,0l3.4-2.6l0.5,1.4l2.5,1.5l0,0l1.8,1.6l0,0l1.2,0.4l0,0l2-0.8l0,0l2.2-0.8l2,0.7l0,0l0.6,1.1l0,0l0.2,3.2l0,0
		l1.3,1.9l0,0l-0.6,1.3l-3.1-1.4l-2.4,1.4l-1.2,1.7l1.2,3l-0.4,3.6l-1.8,1.5l-1,4.6l-1.8,2.6l-2.9-0.1l-1.1,1.1l-2.7,2.6l-2.9-2.3
		l0,0l-5,2.4l-0.4,0.9h-2.6l-0.2-0.9l-1.7-1l-4.1-1.4l0,0l-1.1-2.3L138.5,314.6z"/>
	<path id="KR-44" title="South Chungcheong" class="land South_Chungcheong" d="M17.1,277.2l0.9,0.7l-0.8,0.1l-0.1,0.9l-1.3-0.6l-0.5,0.7l-0.2-1.4l1.1-0.7v-1.3h0.7L17.1,277.2z
		 M20.5,268.8h1.2l0.2,1.2l1.5,0.5l-0.6-1.4l1.3-1l-0.3-2.1l-2.4-1.8l1-1.4l-0.9-1.4l0.2-1.8l-1.1,0.3l0.3-2l-2.2-1.2l0.8-0.9
		l-1-1.4l-0.1-3.2l-1.5-0.7l1.5-1l0.1-1.1l-1-2.6l-1.3-0.6l-3.7,3.8l1.7,3.4l-0.3,5.2l0.9,2l-1.1,2.9L15,262l-0.6,3.3l2.4,0.4
		l-0.6,1.9l1.7,1.5l1-1.1h1.9L20.5,268.8z M25.5,194.9l-0.5-2.1l-2.4-0.4l0.1,2.8L25.5,194.9z M24.5,273.3l-0.6-1.1l-1-0.1l-0.9,0.5
		l0.5,1.4l-2.5-1.4l-0.7,1.6l1.9-0.2l5.3,1.8l0.2-0.9l-2.7-0.7L24.5,273.3z M136.3,308.4l-2.2-1.9l-0.3-2.8l1.2-2.8l-0.3-3.1
		l-1.9-3.1L130,295l-3.8-1.8l-3.3,2.2l-2.2,2.8L117,296l-2.2-3.7l-0.6-3.4h-1.6l-0.3,8.1l-0.9,2.2h-1.2l-0.9-3.1l-2.5-0.9l-1.6-2.2
		l-0.3-3.4l-2.2-1.9l-0.3-4l-1.7-2.1l-1.7-1.3l-1.2-3.1l0.1-4l-0.3-2.8l-1.3-3.9l-2.7-1.5l-1.9-2.6l-0.1-2l1.1-2.4v-3.1l-0.1-3.5
		l-0.3-3.4l0.7-2.4l-0.3-3.1l-0.5-2l-1.1-2l0.4-1.7l2.7-1.1l2.6,0.8l1.5,1.6l2.7,1.6l2.6,0.9l2.4-0.2l5-7.8l3.7,0.3l1.6-1.9
		l-1.2-3.7l-3.1-2.2h-2.9l-1.1-0.5l0.2-2l-0.6-0.5l-1.5-0.7l-0.2-2.7l-2.8-1.9l-0.9-2.4l-5.1-0.7l-3.3-3.4l-3-1.4l-2.6,0.1l-3,2.1
		l-4.9,1.8l-7.5-1.8L69,213l-4.5,1.1l-3.6-0.7l-1.5-5l-1.1-0.4l-1.7-3.9l0.1-1.4l-7.5-2l-0.4-0.8l-6.3-0.2l-6.8-4.1l-2.2-0.4
		l-1.5-2.3l-2-0.7l-0.9,0.7l-0.7,1.4l0.5,0.6l-2.6,2.4l1,1.9l-1.3,0.7l-2.7-1.3l-4-0.4l-2.1,1l-0.8-0.5l-2,1.7l-0.7-0.4l0.3,1.8
		l3.1,0.7l0.8-0.5l0.4,1.2l1,0.2l-1.7,1.3l-0.7-1.1h-2.5l-0.2,1.1l1.4-0.2l0.2,1.1l0.9,0.2l-0.2,1.3l0.9-0.9l1.2,0.3l0.9,1.8
		l1.7-1.3l0.9,0.4v1.5l-1.3,0.6l0.3,1.1l2.1,0.8l-3.3,1l0.2,1.5l-1.9-0.3l-1.2,0.7l0.6,2.2l-1.4,1.2l0.9,1.9l-2.1-1.8l0.4-1.7
		l-1.6-0.3l-1.1,2.7l1,0.8l-0.3,1.2l0.9,1.1l-1.1-0.6l-0.9,0.9l-0.8-0.4v1l-0.9-0.1l-0.4,1.1l-1-2.3l0.2-0.8l3-0.9l0.2-0.7l-2.1-0.5
		l0.1-1.2l1.7-3.7l1.8-0.9h-1l-0.2-1.6l-1.7-1.5v-3.2l0.9-1.3l-1,0.1l-0.8-1l1-0.3l0.2-1.6l-2.3,1.8l1,5.1l-0.8,1.3l0.4,1.1
		l-3.7-1.1l0.4-0.7L5,209.7L3,212l-0.9-0.8l-0.5,2.3l-1.9-0.1l1.3,1.2l-0.9,0.7l0.7,1.7l1-0.1l-2.1,2.7l1.4,1.6L0,221.3l1.6,4.3
		l-1.9-3.7l-0.7,0.5l0.1-3.7l-1-0.1l-0.1-1.1l-0.5,0.8l-0.6-0.3l0.6,1h-0.9l1.3,1.2l-0.2,1.2l-1.3,1l0.7,0.7l-0.4,1.6l-1,0.8
		l-0.4-0.5v1.3l-1.8,0.4l1.2,2.8h0.9l-1.4,4.9l3.1-2.7l-1.2-3.7l1.5,0.8l3.5-0.3l-1,1.3l1.9,1.1l1.2-0.6l-1.3,2.3l1-0.7l0.9,0.7
		l-1.5,1.9l-3.6-1.5l-1.8,1.5l0.6,3.3l3.9,0.4l1.1-2.3l2.3-0.2l0.6-0.8l-0.3-1.8l2.1,0.1l1.9-1.5l0.4,0.7l-0.8,0.3l-0.1,2.2
		l-1.1,1.4l0.3,2.1l2.2,0.3l1.1,2.3l0.1,3.2l-1,0.7l-0.6,2.9l1,1.7l6.7-5.8l4.3,1.2l5,3.5l0.7,3l-0.7,1.7L29,256l1.5-1.3l4.1,3
		l-4.2-2.2l-2,2.1l-0.2,3.4l0.6,2.8l1.2,1.3l-0.3,1.2l2.6-1.3l0.3-1.4l0.8-0.1l2.5-3.3l2.4,1l2.2-0.8l-1,1.2l-2.7-0.5l-0.7,2.8
		l-1.5-0.1l-1.5,1.5h-1.3l-2.4,1.7l-0.9,1.9l-0.4,3.2h1.8l4.7,3.3l3.2,0.7l-2.6-0.2l-4.1,2.8l-1.3,0.1l4.6,6.9l-1.7,3.1l0.9,4.5
		l-1.5,1.6l0.2,2.2l-0.8,1l-2.4-0.2v2.7l1.1,1l0.3-2.4l1.2-0.3l2.6,0.9l0.9,1.8l1.4-1.4l2.5,2.2l1.3,2.9l0.8-0.7l1,0.5v0.8l1.2-0.3
		l-2.4,1.9l1-0.2l0.3,2.8l1-0.1l2.3,2.6l-0.8,0.5l0.1,2.1l0.7,0.7l1.1-0.6l4.3,1.1l1.4-2.2l0.7,0.3l1.3-0.6l1.5,1.4l11.5-5v-8.4
		l4.7-2.7l3.7,0.7l3.8,2.3l1.3-0.4l2.2,2l0.3,3.7l2.4,0.2l0.5,2l2.5,0.2l5.7-2.1l2.8,1.9l5.3-0.3l-0.6-2.5l4.4,0.3l2.4-2l1.1,1.6
		l3,5.1l2.2,7.1l4.9-1.6l0.7,5l6.5-0.3l0.9-1.9l0.2-2.2l1-0.2l1.9-1l4.1,2.4l2.8-2.8v-2.5L136.3,308.4z"/>
	<path id="KR-45" title="North Jeolla" class="land North_Jeolla" d="M53.5,315.1l1.3-0.6l1.5,1.4l11.5-5v-8.4l4.7-2.7l3.7,0.7l3.8,2.3l1.3-0.4l2.2,2l0.3,3.7l2.4,0.2
		l0.5,2l2.5,0.2l5.7-2.1l2.8,1.9l5.3-0.3l-0.6-2.5l4.4,0.3l0,0l2.4-2l1.1,1.6l0,0l3,5.1l2.2,7.1l4.9-1.6l0.7,5l6.5-0.3l0.9-1.9l0,0
		l0.2-2.2l1-0.2l0,0l1.9-1l4.1,2.4l2.8-2.8v-2.5l0,0l1.1-0.6l1.1,2.3l0,0l4.1,1.4l1.7,1l0.2,0.9h2.6l0.4-0.9l5-2.4l0,0l2.9,2.3
		l2.7-2.6l0,0l4.7,9l-1.3,5l0,0l-2.3,1.5l-2,4.6l-3.1,1.9h-1.5l0,0L153,339l-2-0.4l0,0l-0.6,0.5l0,0l-1.7,4.1l-4.9,4.7l-0.8,4.8l0,0
		l-0.2,1.9l-0.9,0.8l0,0l-5.2,14.4l0.2,2.3l2.8,1.4l0,0l0.4,2.9l0,0l1.3,2.3l-0.7,3.3l0.7,1.9l1.6,0.4l-0.5,4l0,0l-3.7,3.6l-1.2,3.1
		l0.5,2.9l-2.2,2.3l0,0l-0.2,0.2l0,0l-6.4-4.5l0,0l-4.5-2.1l0,0l-2,0.1l0,0l-1.8,1l-2.9,3.8l-1.7,0.5l0,0l-3.2-0.4l-2.4,0.7l0,0
		h-6.1l-1.1-0.7l0,0l-1.4-1.4l-1.9,1.1l0,0l-3.1-1.4l-1.3,0.8l0,0l-1,0.9l0,0l-3,1.1l0,0l-2.1-0.5l-2.6-2l0,0l0.4-3.6l-1-2.9l0,0
		l-2.1-0.7l1.1-2.3l0,0l-0.5-4.4l-1.3-1l-2.5-0.1l-1,1.8l0,0l-1,0.6l-0.7,3.1l0,0l-1,0.7l-2-0.6l0,0l-3.5-5.7l0,0l-4-3l-3-0.6
		l-1.6,1.9l-1.1-0.2l0,0l-1.5-0.4l0,0l-2.3,1l-0.8,2l0,0l-0.4,3.8l0,0l-1.6,1.6l0,0l0.3,0.8l0,0l-0.6,3l-2.4,1.2l0,0l-3.1,1
		l-1.5,1.5l0,0l-2.1,0.7l-1-0.4l0,0l-2.1,0.1l-1.4,1.5l-4.3,0.2l0,0l-0.4-1.7h-1.7l-1.2-4l-1.9-2.2l-0.9-5.6l-1.9-1.6l0,0l-1.9-0.6
		l0,0l-3.8-0.5L29,372l1.4,1.3l0.2-1.6l1.8-1.2l2.2,0.9l2.2-2.1l2.5,0.3l0.2,1.2l1.5-3.6l0.6,0.2l-0.1-1.2l1.4-0.4l1.6,0.5l2.5,3
		l-0.3-3.3l-1-0.6l1.2-1.1h-1.4l-2-1.7l-0.3,0.9l-1.5-0.2l-0.8,0.9l-1.2-1l-0.4,0.8h-4.9l-1.2,1.1l-0.9-0.1l-0.3-1l-0.6,1.1
		l-1.7-0.7l-1.1-2l-1.2,0.6l-0.7-1.6l1-1.9l-1.3-1l4.3-2.4l3.3-3.6l1.8-1.2l1.2,0.6l2.5-2.1l3.1-4.2l-0.7-4.3l1-1.6l1.9,0.9l4.6-0.7
		l4.5,1.2l2.1,1.7l1.3,3l0.7-0.6l-1.2-0.4l0.6-2.3l-0.7-2.9l-8.8-5l1.4-1.5l3.2-1.2l5.3,0.2l0.9-1.1l0.1-2.1l2.9-1.4l-4.2,0.1
		l-1.7,1.6l-2.8-0.3l-2.1,0.8l-3.2-1l-1.4,1.2l-5.2-0.3l0.2-6.5l-4.5-0.5v-1.1l-1.9-1.5l0.7-0.9l4.9-0.4l1.2,1l0.7-0.8l5.7-0.8
		l1.7-1.2l2.9,1.1l1.7-1.9l0.3-1.3L53.5,315.1z"/>
	<path id="KR-46" title="South Jeolla" class="land South_Jeolla" d="M-8.5,513.9l0.4,1.2l-1.8-1.2l-0.7,1.2l-0.2-1.6l-1,0.1v1.6l-0.5-1.1l-2.5-0.2l0.2-1.1l-0.9,0.2
		l1.7-1.6l-0.2-0.3l0.8-1.1l1.3,1.7l3.3-0.9L-8.5,513.9z M18.2,489.8l0.9-0.7l-0.5-1.1l-2.4-1.7l-0.7-1.8l-0.9,0.3l0.6-1.1l-2.4,0.8
		l-1.3-1.5l0.8-0.7l-0.7-1.1l-5.8-1.8l-0.1,2.5l1,0.5l-1.5,2.9l-0.8-0.7l-0.1,1.2l-1.2,0.4l1.1,1.2l-1.9,0.2l-0.4,1l0.7,0.8
		l-1.1,0.5L1,487.6l-1.7,3.4l-5.2,2.9l0.9,1.7l-0.7-0.6l-1.1,0.4l-1.7,3.1l2.7,4.6l2.3-0.8l0.3,0.8l-1,0.4l0.4,0.6l-0.9,1.2H-3
		l-0.1-0.7l0.8-0.2l0.9,1.6l2.3,0.1l2.6-1l-0.7-1.3l1.2,0.5l0.9-0.9l0.6,0.7l0.9-1.2L8,503l0.1-2.1l1.5,0.8l1.6-0.8l-0.8-1l0.9-0.4
		l0.8,0.7l-0.4-1.2l1.2,0.9l-0.2-1.8l1.4,1.7l-0.4,0.7h1.2v-1.7l2.8-3.2L17,494l1.3-1.7l-1.2-0.3v-0.9l1.5-0.4l0.6,0.9l-0.1-1.6
		L18.2,489.8z M-23.4,463l1-0.2l-1.3-1.9l0.1-1.5l5-0.7l0.3-1.3l1.2-0.2l-0.3-2.8l-2,0.3l-1,1.9l-1.2-0.3l0.2,0.6l-1.2,0.7l-4-0.6
		l0.4,1.2l-0.8,0.4l-0.1-0.5l-0.4,0.8l0.6,0.7l-0.7,3.3l2.9,1.8l2.1-0.6L-23.4,463z M55.9,510.8l-2.1-0.7l-1.8-3.8l0.1-2.8l-1.1-1.2
		l-3.4-1.8l-4.1,2l-0.1,5.1l0.7,0.7l-0.5,0.9l2,0.4l2.8,3.6l1.5-0.6l2.5,1.3l-0.2-2.1l1.2,1.5l2.8,0.5l-1.4-1.9L55.9,510.8z
		 M-19.6,464.7l-1-2.4l-0.2,1.8L-22,464l-0.1,2l-1-0.6l0.3-0.6l-2.1,0.4l-0.2,3l0.6,1.7l1.1-0.8l-0.1,1.1l0.8,0.5l1.3-1l-0.1,1.6
		l1,0.3l1.5-0.7v-1.1l1.5-1l0.2-1l1.1,0.3l0.5-1.2L-19.6,464.7z M47.6,525.7l-3.4-2.1l-0.7,1.5l-0.9-0.1l1.8,2l-2.1,2.1l-0.1,1.6
		l0.7,1.6l1.4-0.8l-0.1,1.6l1,0.5l0.9-1L46,530l1.1,0.4l0.3-1.1h-1.3l-1.1-2.6l2-0.3L47.6,525.7z M40.4,520.8l-2.8-0.5l-0.5,0.7
		l-0.5-1.4l-1.4,0.1l1.2,1.7l-0.9,0.1l-0.3,0.8h1l-1.1,0.7l0.4,1.3l-0.9,0.4l1.6,0.4l-0.1,1.2l2.6,0.5l-1.3-1.5l2-0.5l-0.1,0.9h1.9
		l-1.2-1.9h1.8l-0.6-1.7L40.4,520.8z M37.9,527l-0.6,1l-0.5-1.1l-1.4,0.3l-1.5-1.6l-3.3,2.5l-0.1,2.5l0.8,2l1.4,0.1l4.7-2.7l0.2-1.5
		l1.1-0.6l1.2,2l0.1-1.7l1.2,1.4l0.5-1.9l-1.1,0.3L37.9,527z M-15.2,482.1l1-0.1l0.6-1.3l0.6,1l1.8-0.5l0.4-1.2l-0.4-1.1l-0.7,0.6
		l0.2-2l-1.4,0.4l-0.8-1.3l0.8-2.1l-1,0.3l0.2-0.8l-1.9,0.4l0.6,1.4l-0.5,2.5l0.8-0.4l0.6,0.6l-0.7,0.6L-15.2,482.1L-15.2,482.1z
		 M8.5,446.9l-0.8,1.8l-2.8-0.9l-0.5,1.8l3.3,1l1.6-1.9l3.1,0.3l0.4,0.9l1.3-0.6l1.4,1.9l-1.7,1.1l0.4,0.7l1.8,0.5l0.2-1l1.5-0.2
		l0.1-3.7l-1.1,0.4v-1.3l-3.1,0.3l-1-0.8l1-0.5l-1.1-0.7l1.2-0.2l0.1-1.2l2.4,0.2v-1l-1.4-1.2l-2.3,0.2l-1.3-1.7l-1.6,1l2.1,3
		l-1,0.6l-1.2-0.6l-0.2,1.6l0.7,0.6l-1.1,0.4L8.5,446.9z M-5,463.6l1.4-0.1l0.6,3l2.8-0.6l0.3-1.8l-1.8-4.1l-1.8,0.7l-1.7-2.2
		l-1.7,0.5l-1.8-0.9l-0.3,1.2h-0.7l0.4,1.4l-0.9,2.1l2-1.2l0.1,1l0.7-0.3l-0.4,1.9l1.2-0.2l0.7,0.8L-5,463.6z M0.4,473.7l0.3-1.5
		l-3-2.3l-1,0.3l-0.6,1.6l-0.8-0.6l-0.3,1l-1.2,0.1l0.3,1l1-0.6l0.6,0.7l-1,1.6l0.7,1.6l2-0.6l0.5-1l1.7,0.6l0.6-1l1.5-0.2l0.3-1.2
		L0.4,473.7z M-1.2,423.8l0.1,0.7l1-0.3l-0.5,0.8l1.9,0.4l0.4-0.6l0.8,1.1l1.8-0.2l1,0.6L4.9,428l0.9,0.2l0.9,1.6l1.4,0.1l1-1.9
		l-1.2-0.7l-0.4-2.4l-1.4-1l0.5-2.7l-0.5-0.6l-1.4,0.9l-0.4-1.1l-2,0.4l-1-1.2l-1,0.2l-2.3,1.4l0.8,1.8L-1.2,423.8z M-9.9,449.3
		l-1.6,0.3l3,3.8l0.4,2.1l2.2-0.4l0.5-1.4l-0.9-1.7l0.8-1.1l1.1,0.5l1.6-1.2l-1.7-1.1v-0.8l1.8,0.1l0.6-0.8l-1.4-1.8l-0.5,0.8
		l-2.2-0.9l-0.6,0.4l0.2,1.8l0.9,0.7l-0.5,0.9l-3.1-1.1L-9.9,449.3z M-1.9,432.5l0.6-1.9l-3.8-1.4l-2.8,3L-1.9,432.5z M-19.2,447.9
		l5.2,0.5l1,1.8l-0.2-1.8l0.8-0.2l0.2,0.8l1.4-0.4l-0.3-0.8l2,0.1l-0.6-1.4l1.9-0.9l-1.4-1.5l1.5-1.4l-1.4-0.2l0.7-1.2l-1.2,0.3
		l0.1-1.3l-2.1-0.9l0.4,2.2l-0.6,1l-1,0.2l-0.4-1.1l-0.7,1.2l-1.8-0.3l-2.2,4.2H-20l1.4,0.9L-19.2,447.9z M-11.5,424.9l0.2-0.3
		l1.6-0.3v1.6l2.4,1v-1.6l1.5,0.1l-0.8-1.5l1.2-0.2l-1.8-1.8l0.3-1.5h1.2l0.3-3.1l3.8-1.7l-4.6,0.2l-0.1,1.1l-2.8,3l-3.2,0.6
		l-0.7,2.3l1.6,0.9l-0.3,0.9l-1.7-0.3l1,1.1L-11.5,424.9z M-69.7,468.5l-1.3-0.7l1.3-1l-3.1,0.6l0.1,1.2l-2.1,2.9l1.1,1L-75,473
		l0.9,1.6l1.6,0.6l-0.1-1.7l1.6-0.7l-0.6-1.6l1.9-0.5l0.2-2.1l1.9-0.6l-1-1L-69.7,468.5z M68.6,525.4l0.5-1.2l-0.8-0.9l0.7-1.2
		l-1.9-0.5l-1.9,0.9l-0.2,0.8l-1.2,0.3v2.5l-1,0.3l1.2,0.5l-1,0.9l0.7,1.4l1.2-1.8l1.1,1.9l1.8-0.7l0.8,0.6l1-0.9l0.1-3.3
		L68.6,525.4z M151.4,445.3l-0.1-3.4l-1.7-1.7l-2.7-0.1l0.3-1.7l-0.8-0.6l-2.6,2.6l0.1,2l5.3,1.2l0.5,0.7l-0.3-2.7l0.9-0.4l0.9,3.9
		L151.4,445.3z M151.9,479.8l1.5-0.6l0.2-0.9l-1.9-1.2l0.3-2.2l0.8-0.3l-0.2-2.9l0.7-0.7l-1,0.1l0.5-0.7l-1.5-0.4l-0.8-1.2l0.3-1.9
		l-1.3,0.3l-0.7-1.1l0.6-0.8l0.8,0.7l0.2,0.3l1.3,0.3l-0.2-2l-4.5-1.9l0.7,2.3l1.1,0.2l-0.2,2.5l1.4,0.7l-1.8,0.3l-0.5,1.5l-2.3,1.5
		l-0.6,1.4l0.7,1l-1.3,1.5l2.5,1.2l1.2,2.2l1.4-0.1L151.9,479.8z M143.4,463.9l-2.1-1.3l0.3-0.7l-1.8-1.1l0.1-0.7l-0.6,0.2l0.2,1
		l-2.3,3l0.7,1.4l-1.5-0.6v-0.8l-0.4,1.3h-0.7l1.3,1.3l-0.4,1l1.4,0.3l-1.5,0.7l1.3,2.2l-0.7,0.5l1.3,0.5l-1.2,1.5h1l0.4,1.1l-2-0.3
		l-1-1.6l-2.4-1l-1.2,0.4l0.4,2.2l-2.8-4.1l1.2-1.2l-1.1-0.3l0.1-1.6l2.4-0.9l-1.3-0.1v-0.8l-1,1l0.4-1.5l-0.8,0.1l1.5-1.3l-0.2-0.9
		l0.6,0.5l1-0.6l0.3-1.4l1.9,0.1l-1.8-0.6l0.6-0.8l-0.7-1.3l-1,1.1v-1.6l-1.3-0.4l1.4-0.7l-1.4-1.4l-0.1-1.3l-3.1-0.2l0.2-1.6
		l1.6-2.2l-1.7-0.3l-0.8-4l-2.5,0.7l0.2,3.1l-0.6,0.8l-1.8-0.5l-2.3,0.9l-0.5-1.4l-0.4,1.4l-3.4,1.3l-1.3-1.3l-2.3-0.1l2.2,1.2
		l0.9,1.5h3.4l-3.1,2l-0.8,2l-1.9-0.1l3.4,1.2l-0.4,1.2l-2.4,1.9l1.5,3.4l3.3,2.3l0.8,1.3l-0.4,0.7h1.8l-0.2,1.4l1.2-0.8l-0.1,0.8
		l0.9,0.1L121,470l1.5-0.1l-0.4,2l1.5,0.5v0.9l-1.2-0.7l-0.3,0.8l-0.9-1l-0.5,0.4l0.8,0.9l2.8,0.6l0.8,4.2l-1.7,1.4l-0.1,1l-2.4-0.8
		l-0.4-1.3l-1.2,1.7l-1-1.3l-1.5,0.6l-0.9-0.9l-4,0.6l0.1,0.7l2.4-0.2l0.2,1l1.3-0.8l-0.4,1.4l-2.2,0.4l-0.2,1.1l2-0.6l2.3,0.4
		l-0.6,0.6l1.4-0.3l0.4,2.3l-1.3,0.4l0.6,2.2l-2.1-0.9l-0.3,1.7l-1.4-0.6l-1,0.7l1.1,1.4l-0.2,0.9l-0.9-0.5l-0.8,0.8l-1.3-1.3
		l-0.5,1.6l-0.6-0.7l-1.7,0.8l1.1,1l-1.7,0.2l1.7,0.9l0.3,1l-1.1,0.8l-2.2-0.9v-0.6h1.1l-0.7-1h-1.2l0.3-0.9l-3-1.2l1.4-1.9
		l-2.8-2.6h-1v0.7l-1.2-0.4l0.2-0.8l-2.4-2.1l0.1,2.6l-2.5-1.7l-0.8,1.7l-0.5-0.7l-2.9,0.3l-1.5-0.8l0.1-1.2l-0.9-0.6l0.5-1.9
		l2.6-2.4l0.3-1.9l0.9,1.1l1.2-0.4l0.1-3.6l2.5-2.5l2.7-0.7l0.4-2.5l1.1-1.1l-0.4-1.7l2.2-2l0.7,0.5l1-0.8l0.5,2.8l-0.7,2.4l0.8,0.8
		l2.7,0.3l1.7-4.9l1.1-0.3l-1.2-0.5l-0.6-4.2l-2,0.3l-1.1,2.2l-2-1.2l-0.8,1.1l-1.7-3.3l-1.5,0.3l-4.2,7.2L91,467l-1.3-1.2l-2.9,3.6
		l-2.9,1.1l-1.8,2.9l-2.8,1.3l-2.3,0.2v1l1.4,0.8l-1,0.4l-0.7,2.6l-1.1,1l0.9,0.7l1.6-0.3l-0.1,1.5l-1.6-0.5v2.5l-1.5-0.4l-1.2,1.3
		l1.7,2l-0.9,0.5l-0.4,1.6l1.5,2.1l-2,0.8l-1.4-1.6l-0.6,0.8l1,2.3l-0.8,1l-1.6-0.8l-4.7-0.2l1.5,2.5l-0.2,1.5l-1.2-1.8l-2.6-1.6
		l-2.5,0.3l-1.3-0.9l0.3-1.4l-2-0.1l1-1.2l-0.9-3.8l1-3.9l-0.7-0.5l0.4-1.7l-0.9-1l0.2-1.2l-1-0.9l0.8-5.2l-1.5,2.7l-0.6,9.4
		l0.6,0.6l-1,0.7l0.7,2.6l-2.5,1.6l0.8,1.6l-2.2,3.3l-2.4,0.3l-2.3,1.4l-0.1,0.9l-0.8-0.8l-1.4,0.5l-0.5,1.5l-1-0.3l-0.6,1l-0.6-0.6
		l-0.6,0.8l0.5,0.6l-0.9,1.2l0.8,0.7l-0.1,2.3l-1.7,1.1l0.6,0.5l-0.8,1l0.5,2.4l-4.3-0.9l-1.5,2.2l-1.4,0.3l-0.3,1l-0.9-0.3l0.3-2.2
		l-0.7-0.5l1.4-1.7l-0.6-3.1l-1.4-0.6l-3.2,2l-0.6-1.1l0.3-0.7l0.9,0.9l-0.2-1l1,0.1l-1.3-2.2l2.4-0.4l-1.1-2.4l1.7,0.9l1.1-1.6
		l-0.7-2.8l-1.1,0.9l-1.3-0.3v1l-2.6-2.4l0.8-0.9l0.4-0.3l0.2-1.6l-0.6,0.3l-1-0.7l1-0.7l-0.9-2.1l1.3-0.8l-0.8-1.4l-1.9-0.2
		l2.2-1.7l-0.3-0.8l-2,0.6v-1.6l-2.3-0.8l0.2,1.2L21,484v1l-1.4,0.7l-0.8-0.8l0.9-2.3l-2.2-0.1l-2.9-1.4l-2,0.7l-0.9-1.1l0.9-1
		l-3.2-1.2l0.1-2.9l1.2-1l-0.4-0.6l-0.4,0.6l-1.2-0.3l-1.2-1.1L7,469l0.8-0.7l-0.2-2.4l0.6,0.4l0.7-1.1l1-5.1l1.3-0.5l1,1l-0.3,0.7
		l1.3-0.1l1,3.2l1.8,1.4l-1.5,1.3l0.2,2.8l-0.7,1l2.5,1.4l-0.1,2.9l1.3,0.6l0.3,1.8l1-1.5l6.7,4.1l-0.2-0.9l2.9-1.5l0.4-1.1
		l-0.9-0.5l-2,1l-0.4-2.9l-1.2,1.2l-0.8-2.4l-1,0.3l0.5-1.8l-0.7-0.1l0.1-0.8h-0.9l-0.3,1.2l-1.4,0.9l-1.1-1l1.6-2l-0.7-2.4l1.1,0.9
		l0.5-0.4l-0.7-1.8l-1-0.2l1-1l1.8,3.5l1.7-1.9l0.5,0.6l0.6-1l1.1,0.7l-2.6,3.6l1.1,1.3l1-0.4v0.9l1.6,1.2l3.9,0.5l1.6,1.4l1-1.3
		l-1.3-0.4l0.1-1.4l2.2,0.2l0.3,0.9l3.2,1.4l3.5-0.2l-2.8-0.9l-3-2.2l0.2-2.7l-2.4-0.1l-1.2-2.9l-2.7-3.2l-2.5-0.3l-1.4,1.1
		l-0.7-1.7l-1.7,0.5L22,461l-2.4,1.8l-2.3-0.9l1.6-1.6l-0.2-1.6l1.2-0.4l-0.1-1.3l-2,0.1l-0.7-2.2l3-4.3l1.8-0.7l-1.6-2.9l0.6-1.3
		l-1.3-0.3l0.3-2h0.8l0.4-1.3l-1.5-1.9l0.7-0.7l-0.8-1.2l0.5-2.2l-1.2-0.8l-0.9-3.2l-0.3,2.8l-0.9,0.7l0.1,0.8l1.4,0.6l-0.9,1.4
		l0.8,0.5l-0.7,0.9l0.4,0.9l-2.5,1l-1.4-0.2l-0.2-1.6l-1.9,0.3l-0.2-0.7l1.5-1l-2.4-2.5l1.6-2.5l-0.3,1.4l0.9-0.7l0.8,1.7l1.9-1
		l0.9-2l-1.9-0.4l4.9-3.2l-0.1-1.5l-0.9-1.1l-2.6,0.8l-0.3-2l-1.7-0.4l1.3-1l-1.2-2.2h-1.3l-0.1,0.7l-1.4-1l1.2,2.2l-1.4,1.1
		l1.3,0.9L11,427l-1.5-2.1l-2.1,1l-0.6-3l-1-0.7l0.4-1.3l1.7-0.1l-2.2-2.4l0.8-1.9l0.8,0.3L7,415.5l1.5-0.9l0.7,1.9l1-0.8l1.4,0.4
		l0.1,1.2l1.3-0.1l0.9-1.6l-0.6-0.8h1l1.1-1.3l0.1,2.6l-0.7,2.3l-0.8,0.2l-0.1,2.5l1.2,0.2l0.9-1l-0.7,2.6l1.2,0.4l0.7-0.6l0.2,1.9
		l2.2-2.7l-0.7,2.3L20,423l1,1.5l-1.5,2.3h1l0.1,1.8l2.2-0.1l-0.6-1.8l2.1-1.4l1.4-2.3l-2.1-1l2.1-0.7l0.7-1.2l-4.1-0.7l-3.6-5.8
		L17,413l0.3-1.3l-1-0.5l1.6-0.5l0.7-2.6l-4.1,0.9l-1.6-0.8l-0.3-1.7l-1.4-1.1l1.1-2.1l1.3,2.8l1.4-1.4l-0.6-1l1.6-2.2l-0.3-0.7
		h-1.8l0.7-1.3h3.1l0.7-5.3l1.8-4.4l4.7,1.6l-3.5-2.4l-0.8-2.4l0.4-2.3l1.5-1.4l4.5-0.2l0,0l1.9,0.6l0,0l1.9,1.6l0.9,5.6l1.9,2.2
		l1.2,4h1.7l0.4,1.7l0,0l4.3-0.2l1.4-1.5l2.1-0.1l0,0l1,0.4l2.1-0.7l0,0l1.5-1.5l3.1-1l0,0l2.4-1.2l0.6-3l0,0l-0.3-0.8l0,0l1.6-1.6
		l0,0l0.4-3.8l0,0l0.8-2l2.3-1l0,0l1.5,0.4l0,0l1.1,0.2l1.6-1.9l3,0.6l4,3l0,0l3.6,5.7l0,0l2,0.6l1-0.7l0,0l0.7-3.1l1-0.6l0,0l1-1.8
		l2.5,0.1l1.3,1l0.5,4.4l0,0l-1.1,2.3l2.1,0.7l0,0l1,2.9l-0.4,3.6l0,0l2.6,2l2.1,0.5l0,0l3-1.1l0,0l1-0.9l0,0l1.3-0.8l3.1,1.4l0,0
		l1.9-1.1l1.4,1.4l0,0l1.1,0.7h6.1l0,0l2.4-0.7l3.2,0.4l0,0l1.7-0.5l2.9-3.8l1.8-1l0,0l2-0.1l0,0l4.5,2.1l0,0l6.4,4.5l0,0l-0.8,2.3
		l2.7,3l0.9,9.2l6.6,6.4l0.2,2.9l0,0l1.1,1l0,0l3.6,3.8l0,0l1.7,1.3l0,0l2.2,8.2l-2.8-0.1l-1.4-3l-3,1.7l-0.1-2.9l-1.4-2l1.1,5.2
		l-1.8,2.1l-2,0.8l0.3,1.4l-3.2,1.5l-0.9,1.4l-0.9-1.2l0.4-0.6l-2.1,0.2l-1.5-2.3l0.2-2.5l-0.7-0.7l-0.1,3l-2,0.5l2.4,1.9l-0.5,0.8
		l-0.4,0.2l-1.9,0.8l1.4,0.5l1.6,3.8l2.9,0.7l-0.9,1.3l1.2,1.4v-1.1l2.3,0.8l2.5-1.8l0.9-1.5l0.1-0.3l3.2-1l-0.9,0.9l1.8,0.7
		l-0.1-0.8l2.3-0.8l1.3,1.3l-0.8,0.2l-0.3,5.9l-0.9-0.1l-1.3,2.6l1,4.5h-2l-0.3,1.1L143.4,463.9z M76.7,411.7l-1-4.5l-1.9-2.3
		L72,404l-2.4-0.1l-4.4,2l-2,2.1l-1.5,0.1L58,406l-0.6-2.2l-2.2-0.1l-2.1,5.3l-2.3-0.1l-1.7,2.1l-1.1,4.8l0.4,4.1l7.2,1l3.7,6.1H63
		l3.4-2h3.8l1.5-1l3.1,0.6l3.4-2.3l1.4-1.8l1.7-6.1V413l-2.1-1L76.7,411.7z M126.5,494.7l-1.4-2.3l-0.1,1.1l-0.7-0.4l-0.4,1H123
		l0.7-0.8l-1.7,0.2l-1.8-1.2l0.4,2.6l-0.8,0.5l2.2-0.5l1,0.6l-0.2,0.6l-1.9-0.2l1.2,1.3h1.7l-0.6,1.7l0.5,0.7l2.7-1.7l1,0.5l0.8-0.9
		l-0.1-2.1L126.5,494.7z M149.7,488.3l1.4-0.5l-1.8-2.2l-0.6-2.2H147l-2.5,1.7l-1.4-0.1l2.2,1.8l1.3-0.4l-0.7,1.2l1.5,0.7l-0.6,0.9
		l1.8-0.2v0.6l1.6,0.3l-0.9,0.6l2.7,0.5l0.8-1.2L149.7,488.3z M146,444.7l-0.9-0.8l-1.8,0.7l-0.7,1.2l0.9,0.7l-0.5,0.4l2.3,0.6
		l0.9-1.9l1.6-0.4l-0.3-0.6L146,444.7z M56.5,502.9l-1.3,2.6l1.4,0.8v-1.9l1.1-1.5l2.5-0.1l0.6-2l2.3,1.2l1.5-0.1l0.1-0.8H64
		l-0.2-1.4l-0.8,0.1l0.2-1.2l-1.1,0.8l-1.4-1l1.8-0.1l0.3-1l-1.1-0.3l-0.1-1.4l-4.2,1.2l-2.2,2.6l0.3,1.4l-1.7,2.2L56.5,502.9z
		 M121.6,491l1.4,0.3l0.4-0.7l0.6,0.7l1.1-0.8l-1.4-2l-2.9-0.2l0.2-0.8l1.2,0.4l-1.5-1.8l1.8-0.8l-0.5-0.9l-1.5-0.2l-2.2,2.9l2,1
		l-0.4,0.5l0.7,0.4l-1.7,1l0.9,1.6l1,0.2L121.6,491z M153,494.8l0.3-1l-1.1,0.6l0.3,0.9l-1.2,2.2l1.5-0.3l-1.5,1.6l0.3,0.5l0.9-0.5
		l0.1,0.8h0.7l1-5l-0.7,0.5L153,494.8z M74.5,507.8l-1.2,1.4l0.3,2.1l0.6-0.4l0.8,1.3l4-2.6l-0.1-0.9l-1.6-0.9L74.5,507.8
		L74.5,507.8z M64.8,510.6l-0.1-0.9l0.5,1.5h1.1l-0.2-2.3l1.5-0.2l0.1-1.5L66,508l-0.7-1.5l-1.4,0.4l-0.1-0.7l-0.7,0.9l-1.5-1.6
		l-1.4,1.3l0.1,1l-1.2,0.5l-1.6-1.4l-1.4,1.3l-2.2-0.1l2.7,1l1.2,1.4l1.4-1.4l1.9,0.1l1.2,3.1l1.3-1.2L64.8,510.6z M85.4,505.6
		l-0.9-0.5l-2.9,1.3l0.1-2l-1.5-1.5l-0.2,0.9h-1.6l0.6,0.6l-0.9,0.1v1.1l-2.1-0.3l2.1,1.2l0.7-0.7l1.3,0.9l0.3,0.8l-1.4,0.3l1.2,0.7
		l2-0.9l0.1,0.7l-1.6,1.1l0.4,1.8l1.7-2.8l2-0.5l-1.7-0.3l0.6-0.9l3.3,1.1l-1.9-1.7L85.4,505.6z M69.2,501.8l-0.6-1.3l-0.7,0.6
		l-0.5-0.7l-0.2,0.9l-1-1.3l-0.8,0.8l-0.1-0.9l-0.9-0.4l-0.3,0.6l0.9,1.4l-0.8,2.4l0.7,0.6l1.3-0.6l0.3,1.6l1.8,0.7l1.6-0.8l0.4-1.2
		l1.8,0.3l-0.7-2l1-2.1l-0.6-1.1l-1.2,2.5H69.2z M100.3,518v1.2l-0.9,0.1l-0.7,2.8l1.5-0.7l1.7,0.9l-0.8-1.2l1.1-0.3l-0.3-3.1
		L100.3,518z M97.7,489.9l-1.4,0.9l-2-0.3l-3.5,2l-1.3-0.6l-0.4-1.4l-0.8,0.1l-0.2,1.6l-2,0.7l1.3,1.7l-0.7,1.4l1.6-0.6l-0.1,1.1
		l2.5,2.1l0.6-1.2l1.5,0.3l0.2-0.8l4,0.6l2.5-5.3L97.7,489.9z M79.5,494.5l1.1,0.7l0.3,3.2l0.8,0.8l0.6-0.3l-0.3-1.3l1,0.3l0.1,2.8
		l1.2-3.1l-0.9-2.5l-1-0.8l-0.4,0.8l-0.6-0.9L79.5,494.5z"/>
	<path id="KR-47" title="North Gyeongsang" class="land North_Gyeongsang" d="M536.3,171.3l0.1,0.3l0.2,0.1h-0.2v0.1l-0.3-0.1l-0.1-0.4L536.3,171.3L536.3,171.3L536.3,171.3
		L536.3,171.3z M536.8,171.5l0.2,0.3l-0.3,0.2l-0.2-0.2L536.8,171.5L536.8,171.5z M536.2,170.9l0.1,0.2l-0.2,0.2V171L536.2,170.9
		L536.2,170.9z M446.2,136l0.9,0.3l-1.1,1.5l1,1.8l-0.7,2.6l0.9,0.7l-3.5,1.9l-0.8,1.9l-6.3-2.5l-1.4-5.8l0.8,0.5l4-2.1l4.5-0.6
		l0.8-0.9L446.2,136z M224,359.5l-0.5,3l0,0l1.7,3.7l0,0l4.4,3.5l5.9-1.1l7.4,2.7l0,0l1.9,0.6l5.5-3.8l1,0.3l0,0l5-4.1h2.1l0,0
		l2.9,0.9l0,0l3.7,1.6l1-0.4l0,0l4.7-3.9l0,0l0,0l0,0l1.7-0.2l0,0l0,0l0,0l1.3-0.7l-1.6-3.5l4.7-3.1l3.1-1l4.2-0.4l2.9,1.9l2,0.3
		l1.2,1.4l0,0l-0.4,2.8l0,0l1,1.1l0,0l2,0.6l0,0l5.4-2.4l0,0l8.1,2.1l0,0l3,0.2l-1.4-1.4l-0.2-2.3l1.3-2.4l1-0.1V354l1.2-1.3
		l-0.4-1.8l2.4-7.5l-0.6-1.9l1.9-2.1l-0.3-2.1l2.5-5.5l-1.6-0.3l1.1-1.1l-0.4-1.3l0.9-0.7l-1.5-3.2l2.9-2.6l0.2-3.2l3.1-4.4
		l-0.7-0.9l0.6-2.5l-1.2-3.7l-1.2-1.1l-1.2,0.3l-0.9,2.3l-3.1,3.3l-0.1,1.3l-4.2,2.5l-0.2,1.2l-0.8,0.3l-2.5-1l-0.3-2.1l-2.3,0.6
		l1.4-1.9l2.3-0.2l-2.6-0.9l-1.7,1.2l-1-1.6l0.7-2.3l3.5-1.4l-0.2-1.5l1.3-1.6l0.1-1l-3-2.5l-0.5-6l-1.4-0.6l-0.8-1.6l1.4-2.2V289
		l-1.2-1.5l0.8-2.5l-0.7-1.6l1.3-8l4.6-8.2l-0.2-6.3l1.8-3l-0.9-0.8l-0.3-4.6l-2.7-3.6v-4.6l2.4-5.7l1.2-1l1.3,0.1l1.3-2.4l-0.6-2.6
		l0.5-1.4l-0.9-2.8l1-1.1l-3-7.7l-1.7-1.9l-1.2-4.3l0.5-6.9l-1.2-4l1-1.9l-1-4.2l0.7-0.5l-0.2-2.5l1.6-0.4l-5.2-5.2l0.4-2l0,0
		l-4.3,0.7l0,0l-1.9,2.2l-2.5,0.9l-2.8,2.5l0,0l-1.6,2.2v1.2l0,0l1.6,2.8l-6.5,0.2l0,0l-2.7-2.3l-2.9-1l-2.6-0.4l-2.5,2.5l-7.4-2.6
		l-3.3,0.7l-0.7-1.3l-1.7-0.7l0,0l-2.9,4.3l0,0l-0.9,1.2h-4l-6.2-4.4l-2,0.2l-0.5,4.7l-1.1,1.1l-3.1-1.4l-1.9,0.3l-4.2-2.3l0,0
		l-2.2,2.2l-2.1-0.2l0,0l-2.3,2.6l0,0l-0.6,0.3l0,0l-3.3,3.2l-2.8,0.8l0,0l-0.8,1.2l0,0L216,210l-3.2,5.7l0,0l-0.8,1.6l0,0l-0.1,1.3
		l1.3,0.6l0,0l0.8,2.9l-2.8,3.9l-4,0.8l0,0l-0.9,1l-2.4-0.1l0,0l-2.2,0.2l0,0l-2.5-4.9l-3.2-1.8l-1.2-2l0,0l-1.7,3l-1.1,0.3l-1,3.5
		l0,0l-0.4,0.6l-5.7-1.7l0,0l-0.4-0.6l0,0l-1.1-0.4l-0.6,0.6l0,0l-2.5,3.1l-1.4,0.2l0,0l-1.6-1.7l-0.5,0.3l0,0l-2.9,6.7l0,0l3.4,5.2
		l-4.6-0.9l0,0l-1.2-0.7l-1.2,0.6l-3.3-1.6l0,0l-2.9,3.7l0,0l-4.2,1.4l-1.7,2.4l0.5,2.2l-3.2,3.3l0,0l-1.8,1.5l0,0l-1.6,0.4l0,0
		l-1,1.9l0.7,1.1l5.4,1.1l1.2,1.2l-0.1,0.9l0,0l1,2l0,0l2,1.4l-0.4,1.7l0,0l-2,0.9l-0.8,7.6l0,0l0.6,2.5l-1.3,2l1.3,3.2l0,0l0.5,0.3
		l0,0l-1,2.6l-2.7,2.3l0,0l-0.1,4.3l2.1,1.8l0,0l3.4-2.6l0.5,1.4l2.5,1.5l0,0l1.8,1.6l0,0l1.2,0.4l0,0l2-0.8l0,0l2.2-0.8l2,0.7l0,0
		l0.6,1.1l0,0l0.1,3.2l0,0l1.3,1.9l0,0l-0.6,1.3l-3.1-1.4l-2.4,1.4l-1.2,1.7l1.2,3l-0.4,3.6l-1.8,1.5l-1,4.6l-1.8,2.6l-2.9-0.1
		l-1.1,1.1l0,0l4.7,9l-1.3,5l0,0l0.1,1.9l1.2,1.4l2.1,0.4l0,0l0.7,0.4l0,0l0.3,2.6l0.9,0.6l0,0l3.9,0.5l0,0l1.7,1.8l0,0l7,0.5
		l1.5,0.8l0,0l2,1.5l0.8,2.9l0,0l0.7,0.5l0,0l2.1,1l0.4,1.8l2.5,1.5l0.9,1.8l-2.1,6.2l0,0l-0.3,1.7l0.9,1.6l3.8,1.5l3.4-0.6l0,0
		l3-1.1l4.5,1.4l0,0l2.2,2.2l0,0l1.7,1.2l0,0l-0.7-3.4l-4-5l0.3-2.8l3.4,1.9h2.2l0.6-2.5l-3.1-3.4l1.2-3.1l1.2-2.8l5.3-0.9l-0.3-1.9
		l-2.8-2.2l-4.7-0.3l1.6-5.9l2.2-3.1l4-1.9l0.6,5.6h2.5l3.4-8.1l5.9-1.2l2.8-3.1l3.4-0.9l3.1,0.3l3.7,3.1l0.6,7.5l1.9,4l-0.9,2.2
		l-3.4,1.2l-1.6,3.4v3.1l-2.5,0.3v1.9l1.2,1.6v4l-3.4,1.2l-1.6,1.9l-2.8-0.3l-0.6-2.8h-3.1l-2.2,1.2l-1.6,2.5l0.5,1.5l0,0l1.3-0.2
		L224,359.5z"/>
	<path id="KR-48" title="South Gyeongsang" class="land South_Gyeongsang" d="M164.9,333.3l2.1,0.4l0,0l0.7,0.4l0,0l0.3,2.6l0.9,0.6l0,0l3.9,0.5l0,0l1.7,1.8l0,0l7,0.5l1.5,0.8
		l0,0l2,1.5l0.8,2.9l0,0l0.7,0.5l0,0l2.1,1l0.4,1.8l2.5,1.5l0.9,1.8l-2.1,6.2l0,0l-0.3,1.7l0.9,1.6l3.8,1.5l3.4-0.6l0,0l3-1.1
		l4.5,1.4l0,0l2.2,2.2l0,0l1.7,1.2l2.4-0.1l3.5-2.5l0,0l1.5-0.4l2.4,0.9l0,0l1.3-0.9l1.3-4.3l1.3-0.2l0,0l0.7,1.3l-0.5,3l0,0
		l1.7,3.7l0,0l4.4,3.5l5.9-1.1l7.4,2.7l0,0l1.9,0.6l5.5-3.8l1,0.3l0,0l5-4.1h2.1l0,0l2.9,0.9l0,0l3.7,1.6l1-0.4l0,0l0.8-0.8l0,0
		l1.5,2.4v1.5l-1.2,1l0,0l-2.2,1.9l0.3,4.8l2.2,1h2.7l0,0l2.4,0.2l3.3,3.3l0,0l5.6,5.9l0,0l3.1,0.2l0,0l1.3,1.5l0,0l-2.9,2.7
		l-0.6,1.9l-4.9,0.6l-3.6,6.6l-1.8-0.3l-3.9,2.5l-4.1,4.9l-4.1,0.1l-3.9,2.4l-2.3,0.3l-0.4,5l-6.9,2.6l0,0l-1.8,2.2l-1-0.7l0.2,1.2
		l-2.3-0.7l-1.1,1.1l-0.4-0.7l-0.9,0.2l-0.1-0.9h-1.2l-0.6,0.8l-0.7-0.7l1.5-2.2l-0.6-1.8l-0.9-0.3l0.2-1l-1.7,0.8l0.5,1.8l-1.2,1
		l-0.3-1.5l-1.8-0.7l0.3-1.3l-1.8,0.3l-0.4,1.7l-0.6-0.8l-0.8,0.3l0.8-1.1l-0.5-1.9l-1.5-1.1l-0.2-3.2l3.9-2.4l-4.2,1.3l-2.2,2.6
		l1.4,1.6l-0.3,1.3l1.1,0.1l0.9,2.1l-2.2,0.5l-0.1,0.7l2.5-0.1l0.1,3.4l2.4,1.9l-2.3,0.6l0.8,1l1.4-0.3l0.9,0.7l-5.9,1.8l1.4-1.1
		l-0.4-0.2l-2-0.2l0.6,1.4l-1.2,0.2l-1.3-1.8l2.2-0.2l-0.3-1.2l1.9-1.1l-3.8-1.1l0.6-0.7h-0.9l-0.1-1.4l-1,1.8l-1.5,0.6l-2.5-1.2
		l0.1,0.8l-1,0.4l-2.3-0.9l-0.2,1.1l3,2.1l-1.1-0.4l-0.4,1l-2.1,0.2l-1.3,1.9h-1.2l-0.3-0.9l-2.7,1.9l-0.8-0.4l0.7,1.6l-1.2,0.5
		l-1,2.4l2.7-1.1l0.1-1.8l1.5-0.9l4.1-1l-0.2-2l0.8-0.2l0.4,0.8l1-1.4l1.3,1.3l-0.1,1.2l-0.3,0.9l-1.8-0.1l2,0.7v1.4l2,1.5l-0.9,1.2
		l-0.8-0.5l-0.6,1.9l-1.3-0.5l-0.1,1l-5.2-0.8v1.4l1.9-0.4l1.2,0.4l0.2,1.1l-1.9,1.9l0.6,0.3l-0.4,1.7l1,0.9L211,443l0.8,0.8
		l-0.6,0.8l0.2,2.8l2.4-3.2l-0.6-1.5l1.2-0.1l1.1,2.5l1,0.3l-0.8,2.3l-1-1.3v1.9l-0.9-0.1l0.5,2.3l-3.9,1.4l2.8,0.6l0.2,0.9v2.1
		l-1,0.2l0.8,0.9l-1.9,0.3l1.5,1.2l-1.2,2.2l-2.5-0.4l-0.1-1.7l-0.8,0.4l0.3-1.2l-0.8-1.2l-0.6,1l-1.1-0.8l1.5-1l-0.1-1.3l-3-1.2
		l-1,1l-0.6-1l0.9-0.4l-0.2-1.4l0.7,1.1l0.9-1.2l1.1,1.4l0.6-0.5l1.2,2.5l-0.2-1.7l1,0.3l0.9-0.8l-1.1,0.3l-0.8-0.6l0.4-0.9
		l-1.3,0.1l-0.4-1.1l1.7-1.4l2.9,0.1l-0.3-0.6H208l-0.5-2.4l-0.3,0.7l-0.8-0.4l0.3,1.9l-1.6-0.3l-0.5-1.7l-0.2,1.6l-0.7-1l-1.3,0.7
		V446l-1.1,0.8l-1.8-2.7l1.4-0.7l4.1,0.1l-1.4-4.6l-1,0.2l0.2-1.1l-1.3-0.6l0.3,2l-2,0.9l0.5,2.1l-1.4,1l-0.7-0.7v1.4l-1.5-0.9V440
		l-1.7-0.3l-0.3-0.2l-1.6,0.3l-0.6-0.6l-0.4,0.8l-2,0.2l0.8,1.3l-0.2,3.7l-1.9-0.2l-0.7-1.4l-0.2,1.2h-0.7l-0.7-1.2l-1.6,0.6
		l-0.9,1.6l-1-1.8l-1,0.3l-0.7-1l1.7-1.3l-4.2-0.1l-3.4-1.9l-0.9-2l2.2-2.3l-1.3-2.1l1-2.3l-0.4-0.8l-0.7,0.6l-0.2-0.5l1.3-5.4
		l1.2-1l-0.6-0.3l-2,1.5l-1.2,4.7l-1.4-0.7l1.2-0.6l-0.2-0.7l-0.7,0.9l-2-0.9l-0.9,1.3l1.9-0.4l1,2.8l1.1,0.3l-1,3.3l-1-1.6
		l-1.5,2.1l-1.1-2.2l-2.2,1.5l0.5,0.9l-1.5-0.5l0.4-0.8l-0.9-0.4l0.8-0.2l0.1-1.2l-1.5-1.4l-0.6,3.8H163l0.4,1.2l-1,0.1l-0.3,1.3
		l-1.8,1.3l-2.9,0.2l-0.2-1.5l-0.6,0.4l-0.6-0.9l-0.4,2.1l-1.7-0.3l-0.1,0.4l-2.2-8.2l0,0l-1.7-1.3l0,0l-3.6-3.8l0,0l-1.1-1l0,0
		l-0.2-2.9l-6.6-6.4l-0.9-9.2l-2.7-3l0.8-2.3l0,0l0.2-0.2l0,0l2.2-2.3l-0.5-2.9l1.2-3.1l3.7-3.6l0,0l0.5-4l-1.6-0.4l-0.7-1.9
		l0.7-3.3l-1.3-2.3l0,0l-0.4-2.9l0,0l-2.8-1.4l-0.2-2.3l5.2-14.4l0,0l0.9-0.8l0.2-1.9l0,0l0.8-4.8l4.9-4.7l1.7-4.1l0,0l0.6-0.5l0,0
		l2,0.4l1.8-1.1l0,0h1.5l3.1-1.9l2-4.6l2.3-1.5l0.1,1.9L164.9,333.3z M250,424.6l0.5,1.4l1-0.3l0.5,1.8l-1.6,3.4l0.7,0.8l-1.3,1.8
		l0.3-0.6l-1.1-1l0.8-1.2l-2-0.9l0.9-0.8l-1.8-3L250,424.6z M236.9,428.7l0.7-0.6l1.3,0.5l0.9,1.5l-0.9,1.7l-1-0.1l0.5,1.1l-1.4,0.1
		l0.8,0.5l-0.4,2.2l1.9,0.9l1,2.9l-0.9-0.1l0.5,2.9l-1.3,0.2l0.6,1.3l-2,1.1l-0.1,1l1.4,0.3l-0.1,0.9l1.9-2.2l1,0.6l-0.1,0.7
		l0.4,1.2l-0.7,0.7l-1.2-0.3l1.2,2.4l-1.1,0.3l-0.6-1l-1.6,1l0.7,1.4l0.9-1l0.7,0.5l-0.6,1.1l2,4.1l-2.9-0.9l0.6-0.8l-0.8-1.4
		l-1.2,1.9l-0.7-0.2l0.2-1.2l-2.1-0.4l-0.2,2.3l0.7,0.9l-1.4,1.3l-1.2-0.4l-0.7,1.8l1.4,2.4l2.7,0.2l-0.5,1.4l-1.9-1.3l-2.5,1
		l-0.2-0.7l-0.5,0.8l1.7,1.4l-0.2,0.9l-1.2-0.5l-1.5,1.5l-1.8-0.9l-1.3,0.8l0.8-2.3l2.1-1l-2.8-1.1l0.2-2.4l2-0.2l-0.9-0.8l0.5-0.9
		l-2.1-0.1l-1.2,1.4l-0.8-1.1l1.4-1.4l-1-0.2l-1.4,1.6l0.2-1l-0.7-0.4l4.4-1.2V453l1-1.6l-0.7,0.2l-1-1.5l1,0.3v-0.7l-1.4-0.8
		l-0.8,2.5h-3.3l-0.1,1.4l-0.8-0.3l0.4,0.9l-1.3,0.7l-0.9-1.7l0.7-0.9l-2.5-1.1l-0.9-3.7l1.9-3.1l0.8-0.1l-0.4-0.7l0.8,0.3l-0.5-0.8
		l1.4,0.2l0.9-1.6l3.9,2.8l0.9-0.2l-0.5-0.9l1.4-0.8l3.7,2.6l-0.6-2.8l-1,0.3l0.3-1.1l-2.4-2.3l1.9-3.1v1.4l2.6-0.3v-0.6l1.6,1
		l-0.2-1.7l1.1-1.1l-0.5-0.7l1-0.3l-0.5-0.8l1.1-0.1l0.3-0.3l0.7-0.7l-1.3,0.1l0.8-3l0.9-0.1L236.9,428.7z M232.9,429.7l0.5,1.2
		l-0.8,3.6l-1.7,0.4l-0.5-0.7l-1.2,1.1l0.2-1.4l1.4-0.8l-0.9-0.8h1.6l-0.2-1.1L232.9,429.7z M161.6,438.4l2.2,1.3l0.2-0.8l0.6,0.3
		v5.6l-2.2,0.8l-0.3,1.5l1.6,2.7l-0.6,0.9l3.2,1.4l0.2,2.1l1.7,0.3l-0.3-0.9l2.9-2.1l3.7-0.3l1.5,1.4l1.4,0.1l0.5,2.3l-1.2,0.1
		l0.5,1l-0.8,1.2l0.9,3.5l-2.3,3l2.5,1.8l-3.9,0.8l0.7-1.9l-0.9-0.6l-0.8,0.3l0.1,1.1L171,465l-0.3-0.8l-0.5,1.4l-2.6-0.1l-1.2-4.3
		l0.6-3.5l-4.4,1.3l0.7,3.7l-2.1,1.3l-3-0.6l0.4-0.7l-1.1-0.4l0.2-1.2l-1.5-0.1l0.4-2.1l1.1-0.3l-1.7-3l0.2-1.4l-2.2-2.9l-0.6-2.8
		l1-2l1-0.1l0.1-2.1l1.2-1.4l0.4,0.6l1.6-0.2l-1-1.3l0.1-1.6l1.1-0.4l0.4-1.2L161.6,438.4z M174.6,441.1l-1.9,6.4l1.3,0.3l-0.1-2.1
		l1.3-1.7l1,0.1l0.2,1.6l0.6-0.3l1.1,1.3l-0.1,1.4l-1.1,1l0.8-0.3l-0.1,1.2h1.4l1.1,1.9l-1.4-0.9l-0.7,0.6l-1-1l-0.8,0.3l-2.3-1.5
		l-0.3,1.2l-1.4,0.3l-3.3-0.9l-0.6-3.2l1.3-0.8l2-3.8L174.6,441.1z M190.6,448.3l3.1,1.8l-2.5,0.2l-2,2L189,451l-1.3-0.3l-0.3-1.3
		L190.6,448.3z M194.1,450.5l2.8,2.9l-0.5,0.8l-2-0.2l0.3,1.9l-4-2.7l0.2-0.8l1.2,0.4l-0.7-0.6l0.9-1.2L194.1,450.5z M217.4,453.1
		l-0.6,0.7h0.9l0.5,3.4l1.2-0.3l0.5,0.8l-0.3,1.2l-1.9,1.1l-2-0.4l0.6-1.1l-1.3-1.8l0.2-2.3l0.5,1.8l0.8-0.4l-0.2-1l-0.7-0.9
		l0.3-0.8L217.4,453.1L217.4,453.1z M194.8,472l2.9,1.6l-1,0.7l0.9,1l0.9-1.6h1.3l-0.9,2.3l-2.5-0.9l-1.8,0.9l-0.2,0.9l-0.9-0.2
		l-0.3-0.6l1.1-0.7l-0.8-0.6l0.3-0.8l-0.9,0.5l-0.4-0.7l1.1-0.4l-0.7-1L194.8,472z"/>
	<path id="KR-49" title="Jeju" class="land Jeju" d="M73.2,599.8l0.7,0.8l-0.4,0.6l1.4-0.1l-0.7,2.9l-2.1-0.5l-0.4-1.4L73.2,599.8z M68.6,614.9
		l-3.1,2.3l-0.5,2l-2.5,2.5l0.2,1.4l-1.3,1.5l-5.1-0.1l-3.1,3.2l-9,1.1l-2.8,2.9l-1.8,0.7l-1-0.9l-1.7-0.1l-0.5,1.3l-1.5-0.9
		l-2.1,0.2l-5.3,1.7l-1.8-1.8l-2.3,0.6l-1.9-1l-3.3,1.5l-4.2-1.1l-3.1,2v3l-1.4-0.5L8.6,637l-0.9-0.6l0.2-1.1H7.1L5,632.4l-4.9-2.8
		l-1.8-3l0.6-3.3l-0.6-1.8L0,620v-1.4l2.8-1.8L4,615l1.2,0.2l2.2-2.5l0.4-2.8l4.2-1.7l0.4-2l5.4-1l1.7-1.3l1.2,0.8l7.9-3.1l1.1-1.2
		l2,0.6l2.4-1l4.3-0.1l0.8-1.2l3.7-0.2l1.1-2l1.9,1.5l1.1-1.1l4.6-0.9l3.2,0.4l0.2-0.9l3.3,1.1l2.8-0.5l1.3,3l1.8,0.9l1-0.6l3.2,1
		l-0.4,1.3h1l0.3,0.9l-1.2,2.2l1.8,1.4l1.3-0.5l1.1,1.7l-0.5,0.6l-1-0.7l-0.8,1.2l-0.1,1l1.5,1.1l-0.7,0.9l-1.2-1.3L68.6,614.9z"/>
	<path id="KR-50" title="Sejong" class="land Sejong" d="M100.8,239.4l-2.7-1.6l-1.5-1.6l-2.6-0.8l-2.7,1.1l-0.4,1.7l1.1,2l0.5,2l0.3,3.1l-0.7,2.4l0.3,3.4
		l0.1,3.5v3.1l-1.1,2.4l0.1,2l1.9,2.6l2.7,1.5l1.3,3.9l0.3,2.8l-0.1,4l1.2,3.1l1.7,1.3l1.7,2.1l2.2-2.5l-0.3-8.7l6.9-2.2l1-6.1
		l-0.6-0.9l-1.1,0.2l-0.6,0.8l1.9-6.1l-1.1-1.1l0.9-3.3l-3.3-0.2l-0.4-1.3v-2.8l-2.8-3.4l2.2-0.6l0.3-2.8l-1.6-2.2l-2.4,0.2
		L100.8,239.4z"/>
</g>
</svg>
